<?xml version="1.0" standalone="no"?>
<!DOCTYPE svg PUBLIC "-//W3C//DTD SVG 20010904//EN"
 "http://www.w3.org/TR/2001/REC-SVG-20010904/DTD/svg10.dtd">
<svg version="1.0" xmlns="http://www.w3.org/2000/svg"
 width="2000.000000pt" height="2000.000000pt" viewBox="0 0 2000.000000 2000.000000"
 preserveAspectRatio="xMidYMid meet">
<metadata>
Created by potrace 1.11, written by Peter Selinger 2001-2013
</metadata>
<g transform="translate(0.000000,2000.000000) scale(0.100000,-0.100000)"
fill="#000000" stroke="none">
<path d="M3019 13502 c-4 -8 -70 -83 -184 -207 -16 -17 -44 -47 -60 -66 -38
-42 -216 -240 -230 -255 -14 -15 -136 -152 -158 -178 -10 -12 -40 -46 -67 -76
-160 -183 -296 -344 -501 -595 -254 -310 -612 -805 -763 -1055 -15 -25 -41
-67 -58 -95 -163 -266 -317 -566 -438 -855 -49 -117 -139 -353 -145 -380 -2
-8 -10 -35 -18 -60 -28 -83 -87 -299 -103 -375 -15 -75 -46 -244 -50 -273 -2
-19 -6 -47 -9 -61 -26 -162 -27 -544 -2 -711 68 -446 237 -780 552 -1095 183
-183 309 -272 545 -387 188 -91 526 -187 745 -212 28 -3 68 -8 90 -11 104 -14
475 -20 590 -10 28 2 82 7 120 10 107 8 166 14 206 20 20 3 54 7 75 10 44 4
57 6 249 40 185 33 187 33 264 51 36 9 73 17 81 19 8 2 35 8 60 15 25 7 56 14
70 17 14 2 115 29 225 59 249 69 535 163 815 266 193 71 235 87 305 118 11 5
99 41 195 80 96 39 193 80 215 90 22 10 69 30 105 44 36 15 79 33 95 41 17 7
185 79 375 160 190 80 359 152 375 160 17 7 122 52 235 100 113 48 223 95 245
105 22 10 164 71 315 135 151 64 299 128 328 141 29 13 55 24 57 24 2 0 34 14
70 30 36 17 68 30 70 30 2 0 28 11 57 24 29 13 161 70 293 126 132 56 258 111
279 121 22 10 44 19 49 19 4 0 32 11 60 24 77 35 191 84 992 425 402 172 739
316 750 321 11 5 40 18 65 28 25 11 92 40 150 65 58 25 681 291 1385 592 704
301 1298 555 1320 565 22 10 132 57 245 104 113 48 229 98 258 112 29 13 55
24 58 24 3 0 35 14 71 30 35 17 67 30 69 30 3 0 29 11 57 24 29 13 93 40 142
61 50 20 110 46 135 57 59 26 103 45 143 62 17 8 361 155 762 326 402 172 748
320 770 330 184 81 563 240 573 240 7 0 12 5 12 10 0 6 6 10 13 10 7 0 170 68
362 151 193 83 386 165 430 183 119 50 1015 434 1050 450 17 8 138 60 270 116
132 56 258 110 280 120 22 10 69 30 105 45 36 15 83 35 105 45 22 9 69 30 105
45 36 15 79 33 95 40 89 39 130 57 235 101 118 49 160 72 99 53 -19 -5 -41
-12 -49 -14 -8 -2 -186 -49 -395 -105 -209 -56 -432 -115 -495 -131 -63 -16
-148 -39 -188 -50 -40 -11 -81 -22 -90 -24 -9 -2 -78 -20 -152 -40 -74 -20
-142 -38 -150 -40 -20 -4 -418 -110 -505 -135 -38 -11 -122 -33 -185 -50 -63
-16 -142 -37 -175 -46 -33 -9 -67 -17 -75 -19 -8 -2 -67 -17 -130 -35 -63 -17
-155 -42 -205 -55 -49 -13 -148 -39 -220 -58 -71 -19 -202 -54 -290 -77 -88
-23 -200 -53 -250 -66 -49 -14 -98 -27 -108 -29 -10 -2 -27 -7 -37 -10 -10 -3
-27 -7 -37 -9 -10 -2 -52 -14 -93 -25 -41 -12 -145 -40 -230 -62 -85 -23 -229
-61 -320 -85 -149 -40 -297 -79 -510 -135 -41 -11 -84 -22 -94 -24 -10 -3 -33
-9 -50 -14 -17 -6 -42 -13 -56 -16 -21 -4 -506 -133 -860 -228 -164 -44 -1036
-276 -1230 -327 -102 -27 -246 -65 -320 -85 -74 -20 -177 -48 -228 -61 -51
-14 -102 -27 -112 -29 -10 -2 -69 -18 -131 -35 -63 -18 -121 -33 -129 -35 -8
-2 -179 -47 -380 -100 -201 -54 -439 -117 -530 -141 -91 -24 -181 -48 -200
-54 -46 -13 -750 -200 -773 -205 -10 -2 -27 -7 -37 -10 -10 -3 -27 -8 -37 -10
-10 -2 -54 -13 -98 -25 -44 -12 -87 -24 -95 -26 -14 -3 -114 -30 -460 -122
-327 -88 -687 -184 -700 -187 -8 -2 -69 -18 -135 -35 -140 -37 -186 -49 -315
-83 -52 -14 -120 -32 -150 -40 -30 -9 -251 -67 -490 -131 -239 -63 -469 -124
-510 -135 -385 -102 -705 -187 -855 -226 -99 -26 -227 -60 -285 -76 -58 -15
-116 -30 -130 -33 -14 -3 -92 -19 -175 -36 -82 -17 -166 -33 -185 -36 -19 -2
-57 -9 -85 -14 -50 -10 -65 -12 -180 -25 -33 -4 -70 -8 -83 -10 -174 -27 -790
-27 -892 0 -8 2 -35 6 -60 9 -25 3 -56 8 -70 11 -14 3 -41 8 -60 11 -42 7
-237 61 -265 73 -11 5 -47 19 -80 32 -351 132 -674 430 -849 784 -66 133 -67
135 -95 220 -66 202 -98 431 -96 668 2 115 11 271 20 317 3 17 12 78 20 135 3
22 7 47 10 55 2 8 6 31 9 50 23 154 169 632 236 775 5 11 21 49 35 85 14 36
32 79 40 95 8 17 26 57 41 90 32 72 173 356 184 370 4 6 20 33 35 60 15 28 45
81 67 118 23 37 38 70 35 73 -3 3 -7 1 -8 -4z"/>
</g>
</svg>
